<?xml version="1.0" encoding="utf-8" standalone="no"?>
<!DOCTYPE svg PUBLIC "-//W3C//DTD SVG 1.1//EN"
  "http://www.w3.org/Graphics/SVG/1.1/DTD/svg11.dtd">
<!-- Created with matplotlib (http://matplotlib.org/) -->
<svg height="252pt" version="1.1" viewBox="0 0 372 252" width="372pt" xmlns="http://www.w3.org/2000/svg" xmlns:xlink="http://www.w3.org/1999/xlink">
 <defs>
  <style type="text/css">
*{stroke-linecap:butt;stroke-linejoin:round;}
  </style>
 </defs>
 <g id="figure_1">
  <g id="patch_1">
   <path d="M -0 252.018125 
L 372.425 252.018125 
L 372.425 0 
L -0 0 
z
" style="fill:none;"/>
  </g>
  <g id="axes_1">
   <g id="patch_2">
    <path d="M 26.925 228.14 
L 361.725 228.14 
L 361.725 10.7 
L 26.925 10.7 
z
" style="fill:#ffffff;"/>
   </g>
   <g id="patch_3">
    <path clip-path="url(#p4ef9bc4a21)" d="M 42.143182 228.14 
L 45.186818 228.14 
L 45.186818 221.459816 
L 42.143182 221.459816 
z
" style="fill:#1f77b4;"/>
   </g>
   <g id="patch_4">
    <path clip-path="url(#p4ef9bc4a21)" d="M 45.186818 228.14 
L 48.230455 228.14 
L 48.230455 228.14 
L 45.186818 228.14 
z
" style="fill:#1f77b4;"/>
   </g>
   <g id="patch_5">
    <path clip-path="url(#p4ef9bc4a21)" d="M 48.230455 228.14 
L 51.274091 228.14 
L 51.274091 228.14 
L 48.230455 228.14 
z
" style="fill:#1f77b4;"/>
   </g>
   <g id="patch_6">
    <path clip-path="url(#p4ef9bc4a21)" d="M 51.274091 228.14 
L 54.317727 228.14 
L 54.317727 221.459816 
L 51.274091 221.459816 
z
" style="fill:#1f77b4;"/>
   </g>
   <g id="patch_7">
    <path clip-path="url(#p4ef9bc4a21)" d="M 54.317727 228.14 
L 57.361364 228.14 
L 57.361364 228.14 
L 54.317727 228.14 
z
" style="fill:#1f77b4;"/>
   </g>
   <g id="patch_8">
    <path clip-path="url(#p4ef9bc4a21)" d="M 57.361364 228.14 
L 60.405 228.14 
L 60.405 221.459816 
L 57.361364 221.459816 
z
" style="fill:#1f77b4;"/>
   </g>
   <g id="patch_9">
    <path clip-path="url(#p4ef9bc4a21)" d="M 60.405 228.14 
L 63.448636 228.14 
L 63.448636 228.14 
L 60.405 228.14 
z
" style="fill:#1f77b4;"/>
   </g>
   <g id="patch_10">
    <path clip-path="url(#p4ef9bc4a21)" d="M 63.448636 228.14 
L 66.492273 228.14 
L 66.492273 221.459816 
L 63.448636 221.459816 
z
" style="fill:#1f77b4;"/>
   </g>
   <g id="patch_11">
    <path clip-path="url(#p4ef9bc4a21)" d="M 66.492273 228.14 
L 69.535909 228.14 
L 69.535909 221.459816 
L 66.492273 221.459816 
z
" style="fill:#1f77b4;"/>
   </g>
   <g id="patch_12">
    <path clip-path="url(#p4ef9bc4a21)" d="M 69.535909 228.14 
L 72.579545 228.14 
L 72.579545 228.14 
L 69.535909 228.14 
z
" style="fill:#1f77b4;"/>
   </g>
   <g id="patch_13">
    <path clip-path="url(#p4ef9bc4a21)" d="M 72.579545 228.14 
L 75.623182 228.14 
L 75.623182 228.14 
L 72.579545 228.14 
z
" style="fill:#1f77b4;"/>
   </g>
   <g id="patch_14">
    <path clip-path="url(#p4ef9bc4a21)" d="M 75.623182 228.14 
L 78.666818 228.14 
L 78.666818 221.459816 
L 75.623182 221.459816 
z
" style="fill:#1f77b4;"/>
   </g>
   <g id="patch_15">
    <path clip-path="url(#p4ef9bc4a21)" d="M 78.666818 228.14 
L 81.710455 228.14 
L 81.710455 221.459816 
L 78.666818 221.459816 
z
" style="fill:#1f77b4;"/>
   </g>
   <g id="patch_16">
    <path clip-path="url(#p4ef9bc4a21)" d="M 81.710455 228.14 
L 84.754091 228.14 
L 84.754091 221.459816 
L 81.710455 221.459816 
z
" style="fill:#1f77b4;"/>
   </g>
   <g id="patch_17">
    <path clip-path="url(#p4ef9bc4a21)" d="M 84.754091 228.14 
L 87.797727 228.14 
L 87.797727 228.14 
L 84.754091 228.14 
z
" style="fill:#1f77b4;"/>
   </g>
   <g id="patch_18">
    <path clip-path="url(#p4ef9bc4a21)" d="M 87.797727 228.14 
L 90.841364 228.14 
L 90.841364 228.14 
L 87.797727 228.14 
z
" style="fill:#1f77b4;"/>
   </g>
   <g id="patch_19">
    <path clip-path="url(#p4ef9bc4a21)" d="M 90.841364 228.14 
L 93.885 228.14 
L 93.885 208.099447 
L 90.841364 208.099447 
z
" style="fill:#1f77b4;"/>
   </g>
   <g id="patch_20">
    <path clip-path="url(#p4ef9bc4a21)" d="M 93.885 228.14 
L 96.928636 228.14 
L 96.928636 214.779631 
L 93.885 214.779631 
z
" style="fill:#1f77b4;"/>
   </g>
   <g id="patch_21">
    <path clip-path="url(#p4ef9bc4a21)" d="M 96.928636 228.14 
L 99.972273 228.14 
L 99.972273 208.099447 
L 96.928636 208.099447 
z
" style="fill:#1f77b4;"/>
   </g>
   <g id="patch_22">
    <path clip-path="url(#p4ef9bc4a21)" d="M 99.972273 228.14 
L 103.015909 228.14 
L 103.015909 208.099447 
L 99.972273 208.099447 
z
" style="fill:#1f77b4;"/>
   </g>
   <g id="patch_23">
    <path clip-path="url(#p4ef9bc4a21)" d="M 103.015909 228.14 
L 106.059545 228.14 
L 106.059545 201.419263 
L 103.015909 201.419263 
z
" style="fill:#1f77b4;"/>
   </g>
   <g id="patch_24">
    <path clip-path="url(#p4ef9bc4a21)" d="M 106.059545 228.14 
L 109.103182 228.14 
L 109.103182 201.419263 
L 106.059545 201.419263 
z
" style="fill:#1f77b4;"/>
   </g>
   <g id="patch_25">
    <path clip-path="url(#p4ef9bc4a21)" d="M 109.103182 228.14 
L 112.146818 228.14 
L 112.146818 208.099447 
L 109.103182 208.099447 
z
" style="fill:#1f77b4;"/>
   </g>
   <g id="patch_26">
    <path clip-path="url(#p4ef9bc4a21)" d="M 112.146818 228.14 
L 115.190455 228.14 
L 115.190455 194.739078 
L 112.146818 194.739078 
z
" style="fill:#1f77b4;"/>
   </g>
   <g id="patch_27">
    <path clip-path="url(#p4ef9bc4a21)" d="M 115.190455 228.14 
L 118.234091 228.14 
L 118.234091 174.698525 
L 115.190455 174.698525 
z
" style="fill:#1f77b4;"/>
   </g>
   <g id="patch_28">
    <path clip-path="url(#p4ef9bc4a21)" d="M 118.234091 228.14 
L 121.277727 228.14 
L 121.277727 194.739078 
L 118.234091 194.739078 
z
" style="fill:#1f77b4;"/>
   </g>
   <g id="patch_29">
    <path clip-path="url(#p4ef9bc4a21)" d="M 121.277727 228.14 
L 124.321364 228.14 
L 124.321364 174.698525 
L 121.277727 174.698525 
z
" style="fill:#1f77b4;"/>
   </g>
   <g id="patch_30">
    <path clip-path="url(#p4ef9bc4a21)" d="M 124.321364 228.14 
L 127.365 228.14 
L 127.365 194.739078 
L 124.321364 194.739078 
z
" style="fill:#1f77b4;"/>
   </g>
   <g id="patch_31">
    <path clip-path="url(#p4ef9bc4a21)" d="M 127.365 228.14 
L 130.408636 228.14 
L 130.408636 181.37871 
L 127.365 181.37871 
z
" style="fill:#1f77b4;"/>
   </g>
   <g id="patch_32">
    <path clip-path="url(#p4ef9bc4a21)" d="M 130.408636 228.14 
L 133.452273 228.14 
L 133.452273 181.37871 
L 130.408636 181.37871 
z
" style="fill:#1f77b4;"/>
   </g>
   <g id="patch_33">
    <path clip-path="url(#p4ef9bc4a21)" d="M 133.452273 228.14 
L 136.495909 228.14 
L 136.495909 161.338157 
L 133.452273 161.338157 
z
" style="fill:#1f77b4;"/>
   </g>
   <g id="patch_34">
    <path clip-path="url(#p4ef9bc4a21)" d="M 136.495909 228.14 
L 139.539545 228.14 
L 139.539545 127.937235 
L 136.495909 127.937235 
z
" style="fill:#1f77b4;"/>
   </g>
   <g id="patch_35">
    <path clip-path="url(#p4ef9bc4a21)" d="M 139.539545 228.14 
L 142.583182 228.14 
L 142.583182 147.977788 
L 139.539545 147.977788 
z
" style="fill:#1f77b4;"/>
   </g>
   <g id="patch_36">
    <path clip-path="url(#p4ef9bc4a21)" d="M 142.583182 228.14 
L 145.626818 228.14 
L 145.626818 114.576866 
L 142.583182 114.576866 
z
" style="fill:#1f77b4;"/>
   </g>
   <g id="patch_37">
    <path clip-path="url(#p4ef9bc4a21)" d="M 145.626818 228.14 
L 148.670455 228.14 
L 148.670455 107.896682 
L 145.626818 107.896682 
z
" style="fill:#1f77b4;"/>
   </g>
   <g id="patch_38">
    <path clip-path="url(#p4ef9bc4a21)" d="M 148.670455 228.14 
L 151.714091 228.14 
L 151.714091 168.018341 
L 148.670455 168.018341 
z
" style="fill:#1f77b4;"/>
   </g>
   <g id="patch_39">
    <path clip-path="url(#p4ef9bc4a21)" d="M 151.714091 228.14 
L 154.757727 228.14 
L 154.757727 121.257051 
L 151.714091 121.257051 
z
" style="fill:#1f77b4;"/>
   </g>
   <g id="patch_40">
    <path clip-path="url(#p4ef9bc4a21)" d="M 154.757727 228.14 
L 157.801364 228.14 
L 157.801364 161.338157 
L 154.757727 161.338157 
z
" style="fill:#1f77b4;"/>
   </g>
   <g id="patch_41">
    <path clip-path="url(#p4ef9bc4a21)" d="M 157.801364 228.14 
L 160.845 228.14 
L 160.845 161.338157 
L 157.801364 161.338157 
z
" style="fill:#1f77b4;"/>
   </g>
   <g id="patch_42">
    <path clip-path="url(#p4ef9bc4a21)" d="M 160.845 228.14 
L 163.888636 228.14 
L 163.888636 74.49576 
L 160.845 74.49576 
z
" style="fill:#1f77b4;"/>
   </g>
   <g id="patch_43">
    <path clip-path="url(#p4ef9bc4a21)" d="M 163.888636 228.14 
L 166.932273 228.14 
L 166.932273 127.937235 
L 163.888636 127.937235 
z
" style="fill:#1f77b4;"/>
   </g>
   <g id="patch_44">
    <path clip-path="url(#p4ef9bc4a21)" d="M 166.932273 228.14 
L 169.975909 228.14 
L 169.975909 87.856129 
L 166.932273 87.856129 
z
" style="fill:#1f77b4;"/>
   </g>
   <g id="patch_45">
    <path clip-path="url(#p4ef9bc4a21)" d="M 169.975909 228.14 
L 173.019545 228.14 
L 173.019545 87.856129 
L 169.975909 87.856129 
z
" style="fill:#1f77b4;"/>
   </g>
   <g id="patch_46">
    <path clip-path="url(#p4ef9bc4a21)" d="M 173.019545 228.14 
L 176.063182 228.14 
L 176.063182 121.257051 
L 173.019545 121.257051 
z
" style="fill:#1f77b4;"/>
   </g>
   <g id="patch_47">
    <path clip-path="url(#p4ef9bc4a21)" d="M 176.063182 228.14 
L 179.106818 228.14 
L 179.106818 94.536313 
L 176.063182 94.536313 
z
" style="fill:#1f77b4;"/>
   </g>
   <g id="patch_48">
    <path clip-path="url(#p4ef9bc4a21)" d="M 179.106818 228.14 
L 182.150455 228.14 
L 182.150455 67.815576 
L 179.106818 67.815576 
z
" style="fill:#1f77b4;"/>
   </g>
   <g id="patch_49">
    <path clip-path="url(#p4ef9bc4a21)" d="M 182.150455 228.14 
L 185.194091 228.14 
L 185.194091 107.896682 
L 182.150455 107.896682 
z
" style="fill:#1f77b4;"/>
   </g>
   <g id="patch_50">
    <path clip-path="url(#p4ef9bc4a21)" d="M 185.194091 228.14 
L 188.237727 228.14 
L 188.237727 74.49576 
L 185.194091 74.49576 
z
" style="fill:#1f77b4;"/>
   </g>
   <g id="patch_51">
    <path clip-path="url(#p4ef9bc4a21)" d="M 188.237727 228.14 
L 191.281364 228.14 
L 191.281364 74.49576 
L 188.237727 74.49576 
z
" style="fill:#1f77b4;"/>
   </g>
   <g id="patch_52">
    <path clip-path="url(#p4ef9bc4a21)" d="M 191.281364 228.14 
L 194.325 228.14 
L 194.325 87.856129 
L 191.281364 87.856129 
z
" style="fill:#1f77b4;"/>
   </g>
   <g id="patch_53">
    <path clip-path="url(#p4ef9bc4a21)" d="M 194.325 228.14 
L 197.368636 228.14 
L 197.368636 21.054286 
L 194.325 21.054286 
z
" style="fill:#1f77b4;"/>
   </g>
   <g id="patch_54">
    <path clip-path="url(#p4ef9bc4a21)" d="M 197.368636 228.14 
L 200.412273 228.14 
L 200.412273 34.414654 
L 197.368636 34.414654 
z
" style="fill:#1f77b4;"/>
   </g>
   <g id="patch_55">
    <path clip-path="url(#p4ef9bc4a21)" d="M 200.412273 228.14 
L 203.455909 228.14 
L 203.455909 47.775023 
L 200.412273 47.775023 
z
" style="fill:#1f77b4;"/>
   </g>
   <g id="patch_56">
    <path clip-path="url(#p4ef9bc4a21)" d="M 203.455909 228.14 
L 206.499545 228.14 
L 206.499545 54.455207 
L 203.455909 54.455207 
z
" style="fill:#1f77b4;"/>
   </g>
   <g id="patch_57">
    <path clip-path="url(#p4ef9bc4a21)" d="M 206.499545 228.14 
L 209.543182 228.14 
L 209.543182 61.135392 
L 206.499545 61.135392 
z
" style="fill:#1f77b4;"/>
   </g>
   <g id="patch_58">
    <path clip-path="url(#p4ef9bc4a21)" d="M 209.543182 228.14 
L 212.586818 228.14 
L 212.586818 94.536313 
L 209.543182 94.536313 
z
" style="fill:#1f77b4;"/>
   </g>
   <g id="patch_59">
    <path clip-path="url(#p4ef9bc4a21)" d="M 212.586818 228.14 
L 215.630455 228.14 
L 215.630455 74.49576 
L 212.586818 74.49576 
z
" style="fill:#1f77b4;"/>
   </g>
   <g id="patch_60">
    <path clip-path="url(#p4ef9bc4a21)" d="M 215.630455 228.14 
L 218.674091 228.14 
L 218.674091 41.094839 
L 215.630455 41.094839 
z
" style="fill:#1f77b4;"/>
   </g>
   <g id="patch_61">
    <path clip-path="url(#p4ef9bc4a21)" d="M 218.674091 228.14 
L 221.717727 228.14 
L 221.717727 34.414654 
L 218.674091 34.414654 
z
" style="fill:#1f77b4;"/>
   </g>
   <g id="patch_62">
    <path clip-path="url(#p4ef9bc4a21)" d="M 221.717727 228.14 
L 224.761364 228.14 
L 224.761364 47.775023 
L 221.717727 47.775023 
z
" style="fill:#1f77b4;"/>
   </g>
   <g id="patch_63">
    <path clip-path="url(#p4ef9bc4a21)" d="M 224.761364 228.14 
L 227.805 228.14 
L 227.805 134.617419 
L 224.761364 134.617419 
z
" style="fill:#1f77b4;"/>
   </g>
   <g id="patch_64">
    <path clip-path="url(#p4ef9bc4a21)" d="M 227.805 228.14 
L 230.848636 228.14 
L 230.848636 107.896682 
L 227.805 107.896682 
z
" style="fill:#1f77b4;"/>
   </g>
   <g id="patch_65">
    <path clip-path="url(#p4ef9bc4a21)" d="M 230.848636 228.14 
L 233.892273 228.14 
L 233.892273 107.896682 
L 230.848636 107.896682 
z
" style="fill:#1f77b4;"/>
   </g>
   <g id="patch_66">
    <path clip-path="url(#p4ef9bc4a21)" d="M 233.892273 228.14 
L 236.935909 228.14 
L 236.935909 54.455207 
L 233.892273 54.455207 
z
" style="fill:#1f77b4;"/>
   </g>
   <g id="patch_67">
    <path clip-path="url(#p4ef9bc4a21)" d="M 236.935909 228.14 
L 239.979545 228.14 
L 239.979545 87.856129 
L 236.935909 87.856129 
z
" style="fill:#1f77b4;"/>
   </g>
   <g id="patch_68">
    <path clip-path="url(#p4ef9bc4a21)" d="M 239.979545 228.14 
L 243.023182 228.14 
L 243.023182 127.937235 
L 239.979545 127.937235 
z
" style="fill:#1f77b4;"/>
   </g>
   <g id="patch_69">
    <path clip-path="url(#p4ef9bc4a21)" d="M 243.023182 228.14 
L 246.066818 228.14 
L 246.066818 107.896682 
L 243.023182 107.896682 
z
" style="fill:#1f77b4;"/>
   </g>
   <g id="patch_70">
    <path clip-path="url(#p4ef9bc4a21)" d="M 246.066818 228.14 
L 249.110455 228.14 
L 249.110455 127.937235 
L 246.066818 127.937235 
z
" style="fill:#1f77b4;"/>
   </g>
   <g id="patch_71">
    <path clip-path="url(#p4ef9bc4a21)" d="M 249.110455 228.14 
L 252.154091 228.14 
L 252.154091 121.257051 
L 249.110455 121.257051 
z
" style="fill:#1f77b4;"/>
   </g>
   <g id="patch_72">
    <path clip-path="url(#p4ef9bc4a21)" d="M 252.154091 228.14 
L 255.197727 228.14 
L 255.197727 107.896682 
L 252.154091 107.896682 
z
" style="fill:#1f77b4;"/>
   </g>
   <g id="patch_73">
    <path clip-path="url(#p4ef9bc4a21)" d="M 255.197727 228.14 
L 258.241364 228.14 
L 258.241364 168.018341 
L 255.197727 168.018341 
z
" style="fill:#1f77b4;"/>
   </g>
   <g id="patch_74">
    <path clip-path="url(#p4ef9bc4a21)" d="M 258.241364 228.14 
L 261.285 228.14 
L 261.285 168.018341 
L 258.241364 168.018341 
z
" style="fill:#1f77b4;"/>
   </g>
   <g id="patch_75">
    <path clip-path="url(#p4ef9bc4a21)" d="M 261.285 228.14 
L 264.328636 228.14 
L 264.328636 181.37871 
L 261.285 181.37871 
z
" style="fill:#1f77b4;"/>
   </g>
   <g id="patch_76">
    <path clip-path="url(#p4ef9bc4a21)" d="M 264.328636 228.14 
L 267.372273 228.14 
L 267.372273 141.297604 
L 264.328636 141.297604 
z
" style="fill:#1f77b4;"/>
   </g>
   <g id="patch_77">
    <path clip-path="url(#p4ef9bc4a21)" d="M 267.372273 228.14 
L 270.415909 228.14 
L 270.415909 141.297604 
L 267.372273 141.297604 
z
" style="fill:#1f77b4;"/>
   </g>
   <g id="patch_78">
    <path clip-path="url(#p4ef9bc4a21)" d="M 270.415909 228.14 
L 273.459545 228.14 
L 273.459545 188.058894 
L 270.415909 188.058894 
z
" style="fill:#1f77b4;"/>
   </g>
   <g id="patch_79">
    <path clip-path="url(#p4ef9bc4a21)" d="M 273.459545 228.14 
L 276.503182 228.14 
L 276.503182 181.37871 
L 273.459545 181.37871 
z
" style="fill:#1f77b4;"/>
   </g>
   <g id="patch_80">
    <path clip-path="url(#p4ef9bc4a21)" d="M 276.503182 228.14 
L 279.546818 228.14 
L 279.546818 154.657972 
L 276.503182 154.657972 
z
" style="fill:#1f77b4;"/>
   </g>
   <g id="patch_81">
    <path clip-path="url(#p4ef9bc4a21)" d="M 279.546818 228.14 
L 282.590455 228.14 
L 282.590455 168.018341 
L 279.546818 168.018341 
z
" style="fill:#1f77b4;"/>
   </g>
   <g id="patch_82">
    <path clip-path="url(#p4ef9bc4a21)" d="M 282.590455 228.14 
L 285.634091 228.14 
L 285.634091 181.37871 
L 282.590455 181.37871 
z
" style="fill:#1f77b4;"/>
   </g>
   <g id="patch_83">
    <path clip-path="url(#p4ef9bc4a21)" d="M 285.634091 228.14 
L 288.677727 228.14 
L 288.677727 194.739078 
L 285.634091 194.739078 
z
" style="fill:#1f77b4;"/>
   </g>
   <g id="patch_84">
    <path clip-path="url(#p4ef9bc4a21)" d="M 288.677727 228.14 
L 291.721364 228.14 
L 291.721364 168.018341 
L 288.677727 168.018341 
z
" style="fill:#1f77b4;"/>
   </g>
   <g id="patch_85">
    <path clip-path="url(#p4ef9bc4a21)" d="M 291.721364 228.14 
L 294.765 228.14 
L 294.765 188.058894 
L 291.721364 188.058894 
z
" style="fill:#1f77b4;"/>
   </g>
   <g id="patch_86">
    <path clip-path="url(#p4ef9bc4a21)" d="M 294.765 228.14 
L 297.808636 228.14 
L 297.808636 214.779631 
L 294.765 214.779631 
z
" style="fill:#1f77b4;"/>
   </g>
   <g id="patch_87">
    <path clip-path="url(#p4ef9bc4a21)" d="M 297.808636 228.14 
L 300.852273 228.14 
L 300.852273 208.099447 
L 297.808636 208.099447 
z
" style="fill:#1f77b4;"/>
   </g>
   <g id="patch_88">
    <path clip-path="url(#p4ef9bc4a21)" d="M 300.852273 228.14 
L 303.895909 228.14 
L 303.895909 221.459816 
L 300.852273 221.459816 
z
" style="fill:#1f77b4;"/>
   </g>
   <g id="patch_89">
    <path clip-path="url(#p4ef9bc4a21)" d="M 303.895909 228.14 
L 306.939545 228.14 
L 306.939545 188.058894 
L 303.895909 188.058894 
z
" style="fill:#1f77b4;"/>
   </g>
   <g id="patch_90">
    <path clip-path="url(#p4ef9bc4a21)" d="M 306.939545 228.14 
L 309.983182 228.14 
L 309.983182 214.779631 
L 306.939545 214.779631 
z
" style="fill:#1f77b4;"/>
   </g>
   <g id="patch_91">
    <path clip-path="url(#p4ef9bc4a21)" d="M 309.983182 228.14 
L 313.026818 228.14 
L 313.026818 208.099447 
L 309.983182 208.099447 
z
" style="fill:#1f77b4;"/>
   </g>
   <g id="patch_92">
    <path clip-path="url(#p4ef9bc4a21)" d="M 313.026818 228.14 
L 316.070455 228.14 
L 316.070455 208.099447 
L 313.026818 208.099447 
z
" style="fill:#1f77b4;"/>
   </g>
   <g id="patch_93">
    <path clip-path="url(#p4ef9bc4a21)" d="M 316.070455 228.14 
L 319.114091 228.14 
L 319.114091 221.459816 
L 316.070455 221.459816 
z
" style="fill:#1f77b4;"/>
   </g>
   <g id="patch_94">
    <path clip-path="url(#p4ef9bc4a21)" d="M 319.114091 228.14 
L 322.157727 228.14 
L 322.157727 221.459816 
L 319.114091 221.459816 
z
" style="fill:#1f77b4;"/>
   </g>
   <g id="patch_95">
    <path clip-path="url(#p4ef9bc4a21)" d="M 322.157727 228.14 
L 325.201364 228.14 
L 325.201364 221.459816 
L 322.157727 221.459816 
z
" style="fill:#1f77b4;"/>
   </g>
   <g id="patch_96">
    <path clip-path="url(#p4ef9bc4a21)" d="M 325.201364 228.14 
L 328.245 228.14 
L 328.245 221.459816 
L 325.201364 221.459816 
z
" style="fill:#1f77b4;"/>
   </g>
   <g id="patch_97">
    <path clip-path="url(#p4ef9bc4a21)" d="M 328.245 228.14 
L 331.288636 228.14 
L 331.288636 221.459816 
L 328.245 221.459816 
z
" style="fill:#1f77b4;"/>
   </g>
   <g id="patch_98">
    <path clip-path="url(#p4ef9bc4a21)" d="M 331.288636 228.14 
L 334.332273 228.14 
L 334.332273 228.14 
L 331.288636 228.14 
z
" style="fill:#1f77b4;"/>
   </g>
   <g id="patch_99">
    <path clip-path="url(#p4ef9bc4a21)" d="M 334.332273 228.14 
L 337.375909 228.14 
L 337.375909 221.459816 
L 334.332273 221.459816 
z
" style="fill:#1f77b4;"/>
   </g>
   <g id="patch_100">
    <path clip-path="url(#p4ef9bc4a21)" d="M 337.375909 228.14 
L 340.419545 228.14 
L 340.419545 228.14 
L 337.375909 228.14 
z
" style="fill:#1f77b4;"/>
   </g>
   <g id="patch_101">
    <path clip-path="url(#p4ef9bc4a21)" d="M 340.419545 228.14 
L 343.463182 228.14 
L 343.463182 228.14 
L 340.419545 228.14 
z
" style="fill:#1f77b4;"/>
   </g>
   <g id="patch_102">
    <path clip-path="url(#p4ef9bc4a21)" d="M 343.463182 228.14 
L 346.506818 228.14 
L 346.506818 214.779631 
L 343.463182 214.779631 
z
" style="fill:#1f77b4;"/>
   </g>
   <g id="matplotlib.axis_1">
    <g id="xtick_1">
     <g id="line2d_1">
      <defs>
       <path d="M 0 0 
L 0 3.5 
" id="ma28ddff89f" style="stroke:#000000;stroke-width:0.8;"/>
      </defs>
      <g>
       <use style="stroke:#000000;stroke-width:0.8;" x="59.580274" xlink:href="#ma28ddff89f" y="228.14"/>
      </g>
     </g>
     <g id="text_1">
      <!-- −3 -->
      <defs>
       <path d="M 10.59375 35.5 
L 73.1875 35.5 
L 73.1875 27.203125 
L 10.59375 27.203125 
z
" id="DejaVuSans-2212"/>
       <path d="M 40.578125 39.3125 
Q 47.65625 37.796875 51.625 33 
Q 55.609375 28.21875 55.609375 21.1875 
Q 55.609375 10.40625 48.1875 4.484375 
Q 40.765625 -1.421875 27.09375 -1.421875 
Q 22.515625 -1.421875 17.65625 -0.515625 
Q 12.796875 0.390625 7.625 2.203125 
L 7.625 11.71875 
Q 11.71875 9.328125 16.59375 8.109375 
Q 21.484375 6.890625 26.8125 6.890625 
Q 36.078125 6.890625 40.9375 10.546875 
Q 45.796875 14.203125 45.796875 21.1875 
Q 45.796875 27.640625 41.28125 31.265625 
Q 36.765625 34.90625 28.71875 34.90625 
L 20.21875 34.90625 
L 20.21875 43.015625 
L 29.109375 43.015625 
Q 36.375 43.015625 40.234375 45.921875 
Q 44.09375 48.828125 44.09375 54.296875 
Q 44.09375 59.90625 40.109375 62.90625 
Q 36.140625 65.921875 28.71875 65.921875 
Q 24.65625 65.921875 20.015625 65.03125 
Q 15.375 64.15625 9.8125 62.3125 
L 9.8125 71.09375 
Q 15.4375 72.65625 20.34375 73.4375 
Q 25.25 74.21875 29.59375 74.21875 
Q 40.828125 74.21875 47.359375 69.109375 
Q 53.90625 64.015625 53.90625 55.328125 
Q 53.90625 49.265625 50.4375 45.09375 
Q 46.96875 40.921875 40.578125 39.3125 
" id="DejaVuSans-33"/>
      </defs>
      <g transform="translate(52.20918 242.738437)scale(0.1 -0.1)">
       <use xlink:href="#DejaVuSans-2212"/>
       <use x="83.789062" xlink:href="#DejaVuSans-33"/>
      </g>
     </g>
    </g>
    <g id="xtick_2">
     <g id="line2d_2">
      <g>
       <use style="stroke:#000000;stroke-width:0.8;" x="107.267949" xlink:href="#ma28ddff89f" y="228.14"/>
      </g>
     </g>
     <g id="text_2">
      <!-- −2 -->
      <defs>
       <path d="M 19.1875 8.296875 
L 53.609375 8.296875 
L 53.609375 0 
L 7.328125 0 
L 7.328125 8.296875 
Q 12.9375 14.109375 22.625 23.890625 
Q 32.328125 33.6875 34.8125 36.53125 
Q 39.546875 41.84375 41.421875 45.53125 
Q 43.3125 49.21875 43.3125 52.78125 
Q 43.3125 58.59375 39.234375 62.25 
Q 35.15625 65.921875 28.609375 65.921875 
Q 23.96875 65.921875 18.8125 64.3125 
Q 13.671875 62.703125 7.8125 59.421875 
L 7.8125 69.390625 
Q 13.765625 71.78125 18.9375 73 
Q 24.125 74.21875 28.421875 74.21875 
Q 39.75 74.21875 46.484375 68.546875 
Q 53.21875 62.890625 53.21875 53.421875 
Q 53.21875 48.921875 51.53125 44.890625 
Q 49.859375 40.875 45.40625 35.40625 
Q 44.1875 33.984375 37.640625 27.21875 
Q 31.109375 20.453125 19.1875 8.296875 
" id="DejaVuSans-32"/>
      </defs>
      <g transform="translate(99.896855 242.738437)scale(0.1 -0.1)">
       <use xlink:href="#DejaVuSans-2212"/>
       <use x="83.789062" xlink:href="#DejaVuSans-32"/>
      </g>
     </g>
    </g>
    <g id="xtick_3">
     <g id="line2d_3">
      <g>
       <use style="stroke:#000000;stroke-width:0.8;" x="154.955624" xlink:href="#ma28ddff89f" y="228.14"/>
      </g>
     </g>
     <g id="text_3">
      <!-- −1 -->
      <defs>
       <path d="M 12.40625 8.296875 
L 28.515625 8.296875 
L 28.515625 63.921875 
L 10.984375 60.40625 
L 10.984375 69.390625 
L 28.421875 72.90625 
L 38.28125 72.90625 
L 38.28125 8.296875 
L 54.390625 8.296875 
L 54.390625 0 
L 12.40625 0 
z
" id="DejaVuSans-31"/>
      </defs>
      <g transform="translate(147.58453 242.738437)scale(0.1 -0.1)">
       <use xlink:href="#DejaVuSans-2212"/>
       <use x="83.789062" xlink:href="#DejaVuSans-31"/>
      </g>
     </g>
    </g>
    <g id="xtick_4">
     <g id="line2d_4">
      <g>
       <use style="stroke:#000000;stroke-width:0.8;" x="202.643299" xlink:href="#ma28ddff89f" y="228.14"/>
      </g>
     </g>
     <g id="text_4">
      <!-- 0 -->
      <defs>
       <path d="M 31.78125 66.40625 
Q 24.171875 66.40625 20.328125 58.90625 
Q 16.5 51.421875 16.5 36.375 
Q 16.5 21.390625 20.328125 13.890625 
Q 24.171875 6.390625 31.78125 6.390625 
Q 39.453125 6.390625 43.28125 13.890625 
Q 47.125 21.390625 47.125 36.375 
Q 47.125 51.421875 43.28125 58.90625 
Q 39.453125 66.40625 31.78125 66.40625 
M 31.78125 74.21875 
Q 44.046875 74.21875 50.515625 64.515625 
Q 56.984375 54.828125 56.984375 36.375 
Q 56.984375 17.96875 50.515625 8.265625 
Q 44.046875 -1.421875 31.78125 -1.421875 
Q 19.53125 -1.421875 13.0625 8.265625 
Q 6.59375 17.96875 6.59375 36.375 
Q 6.59375 54.828125 13.0625 64.515625 
Q 19.53125 74.21875 31.78125 74.21875 
" id="DejaVuSans-30"/>
      </defs>
      <g transform="translate(199.462049 242.738437)scale(0.1 -0.1)">
       <use xlink:href="#DejaVuSans-30"/>
      </g>
     </g>
    </g>
    <g id="xtick_5">
     <g id="line2d_5">
      <g>
       <use style="stroke:#000000;stroke-width:0.8;" x="250.330975" xlink:href="#ma28ddff89f" y="228.14"/>
      </g>
     </g>
     <g id="text_5">
      <!-- 1 -->
      <g transform="translate(247.149725 242.738437)scale(0.1 -0.1)">
       <use xlink:href="#DejaVuSans-31"/>
      </g>
     </g>
    </g>
    <g id="xtick_6">
     <g id="line2d_6">
      <g>
       <use style="stroke:#000000;stroke-width:0.8;" x="298.01865" xlink:href="#ma28ddff89f" y="228.14"/>
      </g>
     </g>
     <g id="text_6">
      <!-- 2 -->
      <g transform="translate(294.8374 242.738437)scale(0.1 -0.1)">
       <use xlink:href="#DejaVuSans-32"/>
      </g>
     </g>
    </g>
    <g id="xtick_7">
     <g id="line2d_7">
      <g>
       <use style="stroke:#000000;stroke-width:0.8;" x="345.706325" xlink:href="#ma28ddff89f" y="228.14"/>
      </g>
     </g>
     <g id="text_7">
      <!-- 3 -->
      <g transform="translate(342.525075 242.738437)scale(0.1 -0.1)">
       <use xlink:href="#DejaVuSans-33"/>
      </g>
     </g>
    </g>
   </g>
   <g id="matplotlib.axis_2">
    <g id="ytick_1">
     <g id="line2d_8">
      <defs>
       <path d="M 0 0 
L -3.5 0 
" id="m220c891e30" style="stroke:#000000;stroke-width:0.8;"/>
      </defs>
      <g>
       <use style="stroke:#000000;stroke-width:0.8;" x="26.925" xlink:href="#m220c891e30" y="228.14"/>
      </g>
     </g>
     <g id="text_8">
      <!-- 0 -->
      <g transform="translate(13.5625 231.939219)scale(0.1 -0.1)">
       <use xlink:href="#DejaVuSans-30"/>
      </g>
     </g>
    </g>
    <g id="ytick_2">
     <g id="line2d_9">
      <g>
       <use style="stroke:#000000;stroke-width:0.8;" x="26.925" xlink:href="#m220c891e30" y="194.739078"/>
      </g>
     </g>
     <g id="text_9">
      <!-- 5 -->
      <defs>
       <path d="M 10.796875 72.90625 
L 49.515625 72.90625 
L 49.515625 64.59375 
L 19.828125 64.59375 
L 19.828125 46.734375 
Q 21.96875 47.46875 24.109375 47.828125 
Q 26.265625 48.1875 28.421875 48.1875 
Q 40.625 48.1875 47.75 41.5 
Q 54.890625 34.8125 54.890625 23.390625 
Q 54.890625 11.625 47.5625 5.09375 
Q 40.234375 -1.421875 26.90625 -1.421875 
Q 22.3125 -1.421875 17.546875 -0.640625 
Q 12.796875 0.140625 7.71875 1.703125 
L 7.71875 11.625 
Q 12.109375 9.234375 16.796875 8.0625 
Q 21.484375 6.890625 26.703125 6.890625 
Q 35.15625 6.890625 40.078125 11.328125 
Q 45.015625 15.765625 45.015625 23.390625 
Q 45.015625 31 40.078125 35.4375 
Q 35.15625 39.890625 26.703125 39.890625 
Q 22.75 39.890625 18.8125 39.015625 
Q 14.890625 38.140625 10.796875 36.28125 
z
" id="DejaVuSans-35"/>
      </defs>
      <g transform="translate(13.5625 198.538297)scale(0.1 -0.1)">
       <use xlink:href="#DejaVuSans-35"/>
      </g>
     </g>
    </g>
    <g id="ytick_3">
     <g id="line2d_10">
      <g>
       <use style="stroke:#000000;stroke-width:0.8;" x="26.925" xlink:href="#m220c891e30" y="161.338157"/>
      </g>
     </g>
     <g id="text_10">
      <!-- 10 -->
      <g transform="translate(7.2 165.137375)scale(0.1 -0.1)">
       <use xlink:href="#DejaVuSans-31"/>
       <use x="63.623047" xlink:href="#DejaVuSans-30"/>
      </g>
     </g>
    </g>
    <g id="ytick_4">
     <g id="line2d_11">
      <g>
       <use style="stroke:#000000;stroke-width:0.8;" x="26.925" xlink:href="#m220c891e30" y="127.937235"/>
      </g>
     </g>
     <g id="text_11">
      <!-- 15 -->
      <g transform="translate(7.2 131.736454)scale(0.1 -0.1)">
       <use xlink:href="#DejaVuSans-31"/>
       <use x="63.623047" xlink:href="#DejaVuSans-35"/>
      </g>
     </g>
    </g>
    <g id="ytick_5">
     <g id="line2d_12">
      <g>
       <use style="stroke:#000000;stroke-width:0.8;" x="26.925" xlink:href="#m220c891e30" y="94.536313"/>
      </g>
     </g>
     <g id="text_12">
      <!-- 20 -->
      <g transform="translate(7.2 98.335532)scale(0.1 -0.1)">
       <use xlink:href="#DejaVuSans-32"/>
       <use x="63.623047" xlink:href="#DejaVuSans-30"/>
      </g>
     </g>
    </g>
    <g id="ytick_6">
     <g id="line2d_13">
      <g>
       <use style="stroke:#000000;stroke-width:0.8;" x="26.925" xlink:href="#m220c891e30" y="61.135392"/>
      </g>
     </g>
     <g id="text_13">
      <!-- 25 -->
      <g transform="translate(7.2 64.93461)scale(0.1 -0.1)">
       <use xlink:href="#DejaVuSans-32"/>
       <use x="63.623047" xlink:href="#DejaVuSans-35"/>
      </g>
     </g>
    </g>
    <g id="ytick_7">
     <g id="line2d_14">
      <g>
       <use style="stroke:#000000;stroke-width:0.8;" x="26.925" xlink:href="#m220c891e30" y="27.73447"/>
      </g>
     </g>
     <g id="text_14">
      <!-- 30 -->
      <g transform="translate(7.2 31.533689)scale(0.1 -0.1)">
       <use xlink:href="#DejaVuSans-33"/>
       <use x="63.623047" xlink:href="#DejaVuSans-30"/>
      </g>
     </g>
    </g>
   </g>
   <g id="patch_103">
    <path d="M 26.925 228.14 
L 26.925 10.7 
" style="fill:none;stroke:#000000;stroke-linecap:square;stroke-linejoin:miter;stroke-width:0.8;"/>
   </g>
   <g id="patch_104">
    <path d="M 361.725 228.14 
L 361.725 10.7 
" style="fill:none;stroke:#000000;stroke-linecap:square;stroke-linejoin:miter;stroke-width:0.8;"/>
   </g>
   <g id="patch_105">
    <path d="M 26.925 228.14 
L 361.725 228.14 
" style="fill:none;stroke:#000000;stroke-linecap:square;stroke-linejoin:miter;stroke-width:0.8;"/>
   </g>
   <g id="patch_106">
    <path d="M 26.925 10.7 
L 361.725 10.7 
" style="fill:none;stroke:#000000;stroke-linecap:square;stroke-linejoin:miter;stroke-width:0.8;"/>
   </g>
  </g>
 </g>
 <defs>
  <clipPath id="p4ef9bc4a21">
   <rect height="217.44" width="334.8" x="26.925" y="10.7"/>
  </clipPath>
 </defs>
</svg>
